<svg width="0" height="0" class="hidden"><symbol viewBox="0 0 512 512" xmlns="http://www.w3.org/2000/svg" id="icon-mastering"><circle cx="256" cy="258.4" r="215.6" fill="rgb(250, 73, 3)" class="hover-path"></circle><path d="M328.4 136.9c-71-34.8-156.9-5.4-191.7 65.6-34.8 71.1-5.4 156.9 65.6 191.7s156.9 5.4 191.7-65.6c34.9-71 5.5-156.9-65.6-191.7z" fill="#d3d5e7"></path><path d="M312.6 129.5c-71.1-34.8-156.9-5.4-191.7 65.6-34.8 71-5.4 156.9 65.6 191.7s156.9 5.4 191.7-65.6c34.9-71.1 5.5-156.9-65.6-191.7zM241.1 254c2.3-4.7 8-6.7 12.7-4.4 4.7 2.3 6.7 8 4.4 12.7-2.3 4.7-8 6.7-12.7 4.4-4.8-2.3-6.8-8-4.4-12.7z" fill="#ffd739" stroke="#1e247e" stroke-width="6" stroke-miterlimit="10"></path><path d="M287.5 320.2l-2.3-3.1c33.8-30.2 32.6-66.5 32.6-66.5h4.5c-2.3 24.4-10.7 47-34.8 69.6z"></path><path d="M296.7 332.2l-7.6-10c24.7-23.3 33.8-49.5 35.9-71.5l13.8.1c-2.4 21.5-11.2 55-42.1 81.4z"></path><path d="M302.9 340.3l-5.2-6.8c31.8-26.8 40.6-61.2 42.7-82.7l8.7.1c-1.4 21.7-9.6 60.6-46.2 89.4z"></path><path d="M307.3 345.8l-2.7-3.5c38-29.4 45.9-69.5 47.2-91.2h4.5c-.8 21.4-8.2 64.2-49 94.7z"></path><path d="M375.3 251.1L362 251c-.4 20.6-6.7 67.2-51.5 99.2l7.9 10.3c55.8-35.8 57.6-93.8 56.9-109.4z"></path><path d="M323 366.7l-2.8-3.7c59.5-37.2 59.1-99.1 58.4-111.9h4.7c-.1 0 8.5 74.2-60.3 115.6zm-144.4-99.9h3.9c3.2-45.2 32.6-66.5 32.6-66.5l-2.8-3.5c-18 16.6-30.7 37.1-33.7 70z"></path><path d="M163.4 266.9l12.6-.1c3.3-33.9 18.4-57.1 34.5-72.1l-8.5-10.9c-15.5 15-36.6 42.6-38.6 83.1z"></path><path d="M153.2 267l8.5-.1c1.7-41.5 23.5-69.5 39.2-84.5l-5.4-6.9c-16.2 14.6-41.9 44.9-42.3 91.5z"></path><path d="M146.2 266.9h4.4c0-48 26.8-78.9 43.1-93.2l-2.8-3.6c-16.3 13.8-45.6 45.8-44.7 96.8z"></path><path d="M127.8 267.2l13-.1c-2.2-55 30.8-88.5 46.8-101.5l-8.3-10.5c-12.6 9-57.4 45.9-51.5 112.1z"></path><path d="M120.1 267.3h4.6c-7.1-69.8 42.1-107.5 52.7-114.7l-2.9-3.7c0-.1-63.9 38.6-54.4 118.4z"></path><g stroke="#1e247e" stroke-miterlimit="10"><path d="M274.5 207.4c-28-13.7-61.9-2.1-75.6 25.9-13.7 28-2.1 61.9 25.9 75.6 28 13.7 61.9 2.1 75.6-25.9 13.7-28 2.1-61.9-25.9-75.6zm-16.4 55c-2.3 4.7-8 6.7-12.7 4.4-4.7-2.3-6.7-8-4.4-12.7 2.3-4.7 8-6.7 12.7-4.4 4.8 2.2 6.8 7.9 4.4 12.7z" fill="#fff" stroke-width="6"></path><path d="M249.6 236.8c-11.8 0-21.4 9.6-21.4 21.4 0 11.8 9.6 21.4 21.4 21.4 11.8 0 21.4-9.6 21.4-21.4 0-11.8-9.6-21.4-21.4-21.4zm8.5 25.6c-2.3 4.7-8 6.7-12.7 4.4-4.7-2.3-6.7-8-4.4-12.7 2.3-4.7 8-6.7 12.7-4.4 4.8 2.2 6.8 7.9 4.4 12.7z" fill="#d9857d" stroke-width="5"></path></g><path d="M202.5 350.3l8 6.2m-8-13.8l16 12.2m-4.4-11.2l4.4 3.4m62.6-176.3l8 6.2m-8-13.8l15.9 12.2m-4.3-11.2l4.3 3.4m-44-11.2c-5.8-.3-5.6-6.7-5.6-6.7-.2 7-5.9 6.7-5.9 6.7s5.9.6 5.9 6.5c-.1 0 .7-6 5.6-6.5m-11.7-10.8c-3.6-.2-3.5-4.2-3.5-4.2-.1 4.4-3.7 4.2-3.7 4.2s3.7.4 3.7 4.1c0 0 .5-3.8 3.5-4.1m-2.2 13c-12.9-.7-12.5-15-12.5-15-.3 15.7-13.2 15-13.2 15s13.2 1.3 13.2 14.6c-.1 0 1.6-13.3 12.5-14.6"></path><path fill="none" stroke="#d3d5e7" stroke-width="4.79" stroke-linecap="round" stroke-miterlimit="10" d="M408.6 434.8l16.3-45-46-16.7-16.3 45.1"></path><ellipse cx="354.7" cy="415.3" rx="5.6" ry="8.5" transform="rotate(-70.117 354.742 415.312)"></ellipse><ellipse cx="400.6" cy="431.9" rx="5.6" ry="8.5" transform="rotate(-70.117 400.669 431.918)"></ellipse><path d="M424.9 389.8l-46-16.6 1.3-3.5c.3-.9 1.4-1.4 2.3-1.1l42.7 15.4c.9.3 1.4 1.4 1.1 2.3l-1.4 3.5z"></path><ellipse cx="119.8" cy="146" rx="12.2" ry="8" transform="rotate(-45.001 119.749 145.97)"></ellipse><path fill="none" stroke="#d3d5e7" stroke-width="5.5" stroke-linecap="round" stroke-miterlimit="10" d="M128.4 137.3L79.7 88.6"></path><path d="M87.6 96.6c5.1-11.2 9.7-2.5 22.7-8.6 7.7-3.6 8.6-11 7.6-14-.1-.4-.7-.4-.9-.1-3.1 4.9-5 5.2-18.8 4.1-13.5-1.1-18.9 7.9-19.7 9.3-.1.1 0 .3.1.4l9 8.9zM327 110.8l-.5-9.2m15.2 4.8l-4.9 8.4m16.4 1.4l-7.6 4.2"></path></symbol>

<symbol xmlns="http://www.w3.org/2000/svg" viewBox="0 0 1200 1200" id="icon-reklam-music"><path class="hover-path" fill="rgb(250, 73, 3)" d="M1006.311 1149.996H211.475C93.878 1149.996 50 1106.764 50 978.385V165.986c0-51.274 44.557-115.983 123.645-115.983h832.551c94.184 0 143.797 64.709 143.797 143.797v823.45c.778 99.901-63.013 132.746-143.682 132.746z"></path><circle fill="#ffd739" cx="613.336" cy="634.99" r="426.088"></circle><path fill="#2D3F52" d="M366.311 815.374h167.842v69.863H366.311z"></path><path fill="#2D3F52" d="M344.07 889.982a10.08 10.08 0 0 0 10.086 10.083h192.155a10.076 10.076 0 0 0 10.083-10.083c0-5.567-4.51-10.083-10.083-10.083H354.156c-5.572.001-10.086 4.516-10.086 10.083z"></path><path fill="#FFF" d="M125.776 797.576c0 13.165 10.668 23.835 23.834 23.835h601.244c13.161 0 23.832-10.67 23.832-23.835V396.757c0-13.17-10.671-23.839-23.832-23.839H149.611c-13.166 0-23.834 10.669-23.834 23.839v400.819z"></path><path fill="#FFF" d="M125.776 762.895V396.757c0-13.17 10.668-23.839 23.834-23.839h601.244c13.161 0 23.832 10.669 23.832 23.839v366.138h-648.91z"></path><path fill="#48505E" d="M438.916 780.366h24.876v21.773h-24.876z"></path><path fill="#2D3F52" d="M146.945 395.542h606.577v344.389H146.945z"></path><path fill="#80C2CD" d="M423.614 519.982l76.121 43.949c10.892 6.288 10.892 22.009 0 28.297l-76.121 43.949c-10.892 6.288-24.506-1.572-24.506-14.149v-87.897c0-12.577 13.614-20.437 24.506-14.149z"></path><path opacity=".19" fill="#211915" d="M750.854 372.918H450.731v527.147h95.581a10.076 10.076 0 0 0 10.083-10.083 10.08 10.08 0 0 0-10.083-10.082h-12.158v-58.489h216.701c13.161 0 23.832-10.671 23.832-23.835v-400.82c0-13.169-10.672-23.838-23.833-23.838z"></path><path fill="#80C2CD" d="M895.646 267.345l-12.672-12.537-178.64 57.284v151.752a62.295 62.295 0 0 0-18.945-2.941c-25.716 0-46.545 14.914-46.545 33.336 0 18.401 20.829 33.324 46.545 33.324 25.673 0 46.503-14.923 46.503-33.324 0-2.004-.332-3.96-.808-5.855V363.285l125.181-40.167v94.616a61.438 61.438 0 0 0-19.794-3.266c-25.715 0-46.523 14.891-46.523 33.324 0 18.411 20.807 33.325 46.523 33.325 25.695 0 46.503-14.914 46.503-33.325 0-2.257-.31-4.472-.931-6.6l.931-.309 12.672-173.538z"></path><path fill="#2D3F52" d="M1083.101 672.145v-42.894c0-7.42-6.014-13.437-13.429-13.437H685.001c-7.415 0-13.433 6.018-13.433 13.437v42.894h9.665v219.586h-9.665v.233c0 7.418 6.018 13.437 13.433 13.437h384.671c7.415 0 13.429-6.018 13.429-13.437v-.233h-9.414V672.145h9.414z"></path><path fill="#2B3D4E" d="M1034.061 606.326c0 6.18-4.998 11.188-11.164 11.188h-60.979c-6.166 0-11.181-5.009-11.181-11.188 0-6.183 5.015-11.18 11.181-11.18h60.979c6.165 0 11.164 4.997 11.164 11.18z"></path><path d="M671.568 880.005v11.959c0 7.418 6.018 13.437 13.433 13.437h384.671c7.415 0 13.429-6.018 13.429-13.437v-11.959H671.568zm411.533-199.156v-51.598c0-7.42-6.014-13.437-13.429-13.437H685.001c-7.415 0-13.433 6.018-13.433 13.437v51.598h411.533z" fill="#FFF"></path><path fill="#80C2CD" d="M946.933 753.495c0 60.32-48.906 109.223-109.234 109.223-60.32 0-109.225-48.902-109.225-109.223 0-60.33 48.906-109.235 109.225-109.235 60.329 0 109.234 48.906 109.234 109.235z"></path><path fill="#2B3D4E" d="M900.194 753.495c0 34.513-27.972 62.479-62.495 62.479-34.504 0-62.479-27.965-62.479-62.479 0-34.527 27.975-62.493 62.479-62.493 34.523 0 62.495 27.966 62.495 62.493z"></path><path fill="#80C2CD" d="M1055.661 661.307c0 7.424-6.022 13.435-13.427 13.435h-61.532c-7.436 0-13.439-6.011-13.439-13.435V645.51c0-7.421 6.003-13.435 13.439-13.435h61.532c7.405 0 13.427 6.015 13.427 13.435v15.797z"></path><path opacity=".19" fill="#211915" d="M1069.672 615.813h-40.919c3.175-1.973 5.308-5.468 5.308-9.487 0-6.184-4.998-11.181-11.164-11.181h-60.979c-6.166 0-11.181 4.997-11.181 11.181 0 4.019 2.14 7.515 5.32 9.487H877.69V905.4h191.982c7.415 0 13.429-6.018 13.429-13.437v-11.958h-9.414V680.85h9.414v-51.6c0-7.419-6.014-13.437-13.429-13.437z"></path></symbol>

<symbol viewBox="0 0 64 64" xmlns="http://www.w3.org/2000/svg" id="icon-song"><circle cx="30" cy="30" r="28" fill="#666"></circle><ellipse cx="28" cy="30" rx="26" ry="27.921" fill="rgb(250, 73, 3)" class="hover-path"></ellipse><path d="M46 20h6a6 6 0 0 1 6 6v18a6 6 0 0 1-6 6h-6a6 6 0 0 1-6-6V26a6 6 0 0 1 6-6z" fill="#777"></path><path d="M54 44V26a6 6 0 0 0-6-6h-2a6 6 0 0 0-6 6v18a6 6 0 0 0 6 6h2a6 6 0 0 0 6-6z" fill="#ffd739"></path><path d="M58 26H40a6 6 0 0 1 6-6h6a6 6 0 0 1 6 6z" fill="#ffd739"></path><path d="M49 20h-3a6 6 0 0 0-6 6h15a6 6 0 0 0-6-6z" fill="#ffd739"></path><circle cx="30" cy="30" r="8" fill="#777"></circle><ellipse cx="28.5" cy="30" rx="6.5" ry="7.855" fill="#ffd739"></ellipse><circle cx="30" cy="30" r="2" fill="#3bb54a"></circle><ellipse cx="29.5" cy="30" rx="1.5" ry="1.929" fill="#6ec067"></ellipse><path d="M15 30h-2c0-9.374 7.626-17 17-17v2c-8.271 0-15 6.729-15 15z"></path><path d="M11 30H9C9 18.42 18.421 9 30 9v2c-10.477 0-19 8.523-19 19z"></path><path d="M19 30h-2c0-7.168 5.832-13 13-13v2c-6.065 0-11 4.935-11 11zm11 3c-1.654 0-3-1.346-3-3s1.346-3 3-3 3 1.346 3 3-1.346 3-3 3zm0-4a1.001 1.001 0 0 0 0 2 1.001 1.001 0 0 0 0-2zm22 22h-6c-3.859 0-7-3.14-7-7V26c0-3.86 3.141-7 7-7h6c3.859 0 7 3.14 7 7v18c0 3.86-3.141 7-7 7zm-6-30c-2.757 0-5 2.243-5 5v18c0 2.757 2.243 5 5 5h6c2.757 0 5-2.243 5-5V26c0-2.757-2.243-5-5-5h-6z"></path><path d="M56 55H42c-3.859 0-7-3.14-7-7V33c0-1.654 1.346-3 3-3h2v2h-2c-.552 0-1 .449-1 1v15c0 2.757 2.243 5 5 5h14c2.757 0 5-2.243 5-5V33c0-.551-.448-1-1-1h-2v-2h2c1.654 0 3 1.346 3 3v15c0 3.86-3.141 7-7 7z"></path><path d="M49 54h2v8h-2z"></path><path d="M45 61h10v2H45zm-5-32h5v2h-5zm0 4h5v2h-5zm0 4h5v2h-5zm0 4h5v2h-5zm0 4h5v2h-5zm13-16h5v2h-5zm0 4h5v2h-5zm0 4h5v2h-5zm0 4h5v2h-5zm0 4h5v2h-5zM40 25h18v2H40z"></path><path d="M48 20h2v6h-2zm-4 0h2v6h-2zm8 0h2v6h-2zM16 49c-1.654 0-3-1.346-3-3s1.346-3 3-3 3 1.346 3 3-1.346 3-3 3zm0-4a1.001 1.001 0 0 0 0 2 1.001 1.001 0 0 0 0-2z"></path><path d="M19 46h-2V36a1 1 0 0 1 1.707-.707l5 5-1.414 1.414L19 38.414V46zm28-30c-1.654 0-3-1.346-3-3s1.346-3 3-3 3 1.346 3 3-1.346 3-3 3zm0-4a1.001 1.001 0 0 0 0 2 1.001 1.001 0 0 0 0-2z"></path><path d="M50 13h-2V3a1 1 0 0 1 1.707-.707l5 5-1.414 1.414L50 5.414V13zM30 39c-4.963 0-9-4.038-9-9s4.037-9 9-9a9.031 9.031 0 0 1 7.795 4.5l-1.73 1.001A7.03 7.03 0 0 0 30 23c-3.859 0-7 3.14-7 7s3.141 7 7 7v2z"></path><path d="M30 59C14.01 59 1 45.991 1 30S14.01 1 30 1c13.125 0 24.649 8.847 28.024 21.515l-1.932.515C52.949 11.237 42.22 3 30 3 15.112 3 3 15.112 3 30s12.112 27 27 27a26.85 26.85 0 0 0 18.896-7.714l1.4 1.429C44.844 56.058 37.636 59 30 59z"></path></symbol>

<symbol viewBox="0 0 64 64" xmlns="http://www.w3.org/2000/svg" id="icon-video-music"><path fill="rgb(250, 73, 3)" class="hover-path" d="M4 2h56v40H4z"></path><path fill="rgb(250, 73, 3)" class="hover-path" d="M4 2h53v40H4z"></path><path fill="#e6e6e6" d="M56 38H8V6h48v32z"></path><path fill="#f2f2f2" d="M8 6h45v32H8z"></path><path fill="#4d4d4d" d="M12 10h22v16H12z"></path><path fill="#666" d="M12 10h19v16H12z"></path><path fill="#ffd739" d="M40 10h4v4h-4zm-20 5v6l5-3z"></path><path fill="#ffd739" d="M20 15v6l5-3z"></path><path d="M36 42H4a2 2 0 0 0-2 2v4a2 2 0 0 0 2 2h32v-8z" fill="rgb(250, 73, 3)" class="hover-path"></path><path d="M4 42a2 2 0 0 0-2 2v4a2 2 0 0 0 2 2h29v-8H4z" fill="rgb(250, 73, 3)" class="hover-path"></path><path d="M36 51H4c-1.654 0-3-1.346-3-3v-4c0-1.654 1.346-3 3-3h32v2H4c-.551 0-1 .448-1 1v4c0 .552.449 1 1 1h32v2z"></path><path d="M5 42H3V2a1 1 0 0 1 1-1h56a1 1 0 0 1 1 1v32h-2V3H5v39z"></path><path d="M36 39H8a1 1 0 0 1-1-1V6a1 1 0 0 1 1-1h48a1 1 0 0 1 1 1v28h-2V7H9v30h27v2z"></path><path d="M34 27H12a1 1 0 0 1-1-1V10a1 1 0 0 1 1-1h22a1 1 0 0 1 1 1v16a1 1 0 0 1-1 1zm-21-2h20V11H13v14zm0 4h20v2H13zm0 4h20v2H13zm31-18h-4a1 1 0 0 1-1-1v-4a1 1 0 0 1 1-1h4a1 1 0 0 1 1 1v4a1 1 0 0 1-1 1zm-3-2h2v-2h-2v2z"></path><path fill="#ffd739" d="M40 26h4v4h-4zm0-8h4v4h-4z"></path><path d="M44 23h-4a1 1 0 0 1-1-1v-4a1 1 0 0 1 1-1h4a1 1 0 0 1 1 1v4a1 1 0 0 1-1 1zm-3-2h2v-2h-2v2zm3 10h-4a1 1 0 0 1-1-1v-4a1 1 0 0 1 1-1h4a1 1 0 0 1 1 1v4a1 1 0 0 1-1 1zm-3-2h2v-2h-2v2zm6-18h6v2h-6zm0 8h6v2h-6zm0 8h6v2h-6zm-27-5a1.001 1.001 0 0 1-1-1v-6a1.001 1.001 0 0 1 1.514-.857l5 3a.997.997 0 0 1 .001 1.714l-5 3A1.004 1.004 0 0 1 20 22zm1-5.233v2.467L23.056 18 21 16.767z"></path><path fill="#eee" d="M42 34h20v28H42z"></path><path fill="#fff" d="M42 34h17v28H42z"></path><path fill="#006e35" d="M48 54h8v4h-8z"></path><path fill="#ffd739" d="M48 54h5v4h-5z"></path><path fill="#006e35" d="M46 38h12v4H46z"></path><path fill="#009245" d="M46 38h9v4h-9z"></path><path fill="#603813" d="M36 34h6v28h-6z"></path><path fill="#eee" d="M36 34h4v28h-4z"></path><path d="M5 45h2v2H5zm4 0h2v2H9zm4 0h2v2h-2zm4 0h2v2h-2zm4 0h2v2h-2zm21 18h-6a1 1 0 0 1-1-1V34a1 1 0 0 1 1-1h6a1 1 0 0 1 1 1v28a1 1 0 0 1-1 1zm-5-2h4V35h-4v26z"></path><path d="M62 63H42a1 1 0 0 1-1-1V34a1 1 0 0 1 1-1h20a1 1 0 0 1 1 1v28a1 1 0 0 1-1 1zm-19-2h18V35H43v26z"></path><path d="M56 59h-8a1 1 0 0 1-1-1v-4a1 1 0 0 1 1-1h8a1 1 0 0 1 1 1v4a1 1 0 0 1-1 1zm-7-2h6v-2h-6v2zm9-14H46a1 1 0 0 1-1-1v-4a1 1 0 0 1 1-1h12a1 1 0 0 1 1 1v4a1 1 0 0 1-1 1zm-11-2h10v-2H47v2z"></path></symbol></svg>
